<?xml version="1.0" encoding="UTF-8" standalone="no"?>
<svg
   xmlns:dc="http://purl.org/dc/elements/1.1/"
   xmlns:cc="http://creativecommons.org/ns#"
   xmlns:rdf="http://www.w3.org/1999/02/22-rdf-syntax-ns#"
   xmlns:svg="http://www.w3.org/2000/svg"
   xmlns="http://www.w3.org/2000/svg"
   xmlns:sodipodi="http://sodipodi.sourceforge.net/DTD/sodipodi-0.dtd"
   xmlns:inkscape="http://www.inkscape.org/namespaces/inkscape"
   inkscape:version="1.0 (4035a4fb49, 2020-05-01)"
   sodipodi:docname="circle.svg"
   id="svg4"
   viewBox="0 0 24 24"
   height="24"
   width="24"
   version="1.1">
  <metadata
     id="metadata10">
    <rdf:RDF>
      <cc:Work
         rdf:about="">
        <dc:format>image/svg+xml</dc:format>
        <dc:type
           rdf:resource="http://purl.org/dc/dcmitype/StillImage" />
      </cc:Work>
    </rdf:RDF>
  </metadata>
  <defs
     id="defs8" />
  <sodipodi:namedview
     inkscape:current-layer="svg4"
     inkscape:window-maximized="1"
     inkscape:window-y="-8"
     inkscape:window-x="54"
     inkscape:cy="32.234246"
     inkscape:cx="8.0152101"
     inkscape:zoom="12.779563"
     showgrid="false"
     id="namedview6"
     inkscape:window-height="1057"
     inkscape:window-width="1858"
     inkscape:pageshadow="2"
     inkscape:pageopacity="0"
     guidetolerance="10"
     gridtolerance="10"
     objecttolerance="10"
     borderopacity="1"
     bordercolor="#666666"
     pagecolor="#ffffff" />
  <path
     id="path2-2"
     d="M 12,17.774781 A 5.7747806,5.7747806 0 0 1 6.2252191,11.999999 5.7747806,5.7747806 0 0 1 12,6.225219 5.7747806,5.7747806 0 0 1 17.774781,11.999999 5.7747806,5.7747806 0 0 1 12,17.774781 M 12,4.781524 A 7.2184757,7.2184757 0 0 0 4.7815241,11.999999 7.2184757,7.2184757 0 0 0 12,19.218476 7.2184757,7.2184757 0 0 0 19.218476,11.999999 7.2184757,7.2184757 0 0 0 12,4.781524 Z"
     style="stroke-width:0.721848" />
</svg>
